# xmcd
#
# Track frame offsets: 
#        180
#        12759
#        28367
#        41434
#        55290
#        75125
#        94809
#        104699
#        116089
#        126110
#        136794
#        145382
#        159874
#        177944
#        190724
#        208892
#
# Disc length: 2905 seconds
#
# Revision: 3
# Processed by: cddbd v1.5.2PL0 Copyright (c) Steve Scherf et al.
# Submitted via: ExactAudioCopy v0.95b3
#
DISCID=d60b5710
DTITLE=Back Alley John - More A Feeling Than A Living
DYEAR=1995
DGENRE=Blues
TTITLE0=Mellow Down Easy
TTITLE1=St. Louis Blues
TTITLE2=No Sugar Baby Now
TTITLE3=Come Back Home
TTITLE4=A I Go Wandering Around
TTITLE5=James Alley Blues
TTITLE6=Hoy Hoy
TTITLE7=Three Times A Day
TTITLE8=Mole In The Ground
TTITLE9=Nothing to Do All Day
TTITLE10=Who's Been Here
TTITLE11=Early Last Night
TTITLE12=I'm A Man
TTITLE13=Up Yer River
TTITLE14=Walking My Blues Away
TTITLE15=Heaven Sitting Down
EXTD=
EXTT0=
EXTT1=
EXTT2=
EXTT3=
EXTT4=
EXTT5=
EXTT6=
EXTT7=
EXTT8=
EXTT9=
EXTT10=
EXTT11=
EXTT12=
EXTT13=
EXTT14=
EXTT15=
PLAYORDER=
